<svg width="520" height="85" viewBox="0 0 520 85" fill="none" xmlns="http://www.w3.org/2000/svg">
<g opacity="0.3">
<path d="M0 83.616V1.15332H55.9964V19.4912H23.8825V37.0217H49.5041V54.4369H23.8825V83.616H0Z" fill="#EEEEEE"/>
<path d="M67.1379 83.616V1.15332H91.0204V65.2782H122.323V83.616H67.1379Z" fill="#EEEEEE"/>
<path d="M143.914 83.616V48.3243L116.901 1.15332H142.754L156.782 28.9484L170.811 1.15332H193.534L167.796 48.3243V83.616H143.914Z" fill="#EEEEEE"/>
<path d="M219.448 83.616V19.3758H198V1.15332H264.778V19.3758H243.33V83.616H219.448Z" fill="#EEEEEE"/>
<path d="M298.882 38.7517H306.534C314.533 38.7517 318.475 35.4071 318.475 28.7178V28.2564C318.475 21.5672 314.301 18.9145 306.65 18.9145H298.882V38.7517ZM275.231 83.616V1.15332H307.693C329.373 1.15332 341.43 9.91858 341.43 27.3338V27.7951C341.43 39.559 335.17 46.133 326.474 49.4776L346.299 83.616H321.257L304.447 54.0909H298.882V83.616H275.231Z" fill="#EEEEEE"/>
<path d="M394.006 85C367.225 85 350.531 67.7001 350.531 42.9037V41.981C350.531 16.8385 369.544 0 394.354 0C419.628 0 438.293 15.8005 438.293 41.4043V42.327C438.293 67.7001 420.787 85 394.006 85ZM394.47 66.4315C406.179 66.4315 413.483 57.4356 413.483 42.673V41.7503C413.483 27.1031 406.064 18.4532 394.354 18.4532C382.645 18.4532 375.341 26.8725 375.341 41.8657V42.7883C375.341 57.7815 382.993 66.4315 394.47 66.4315Z" fill="#EEEEEE"/>
<path d="M437.571 83.616L463.192 41.1737L439.541 1.15332H466.554L479.539 25.7191L492.292 1.15332H516.638L494.378 40.3663L520 83.616H492.871L477.452 55.2442L462.033 83.616H437.571Z" fill="#EEEEEE"/>
</g>
</svg>
