<svg width="89" height="59" viewBox="0 0 89 59" fill="none" xmlns="http://www.w3.org/2000/svg">
<path d="M27.84 58V47.04H0V40.88L23.84 0.799999H43.6V35.76H50.96V47.04H43.6V58H27.84ZM15.44 35.76H28.24V13.12L15.44 35.76Z" fill="currentColor"/>
<path d="M65.2588 58.96C49.3388 58.96 41.8988 51.6 41.4188 39.2H55.9788C56.4588 43.92 58.6988 47.12 64.3788 47.12C69.4188 47.12 71.8988 44.72 71.8988 40.64C71.8988 36.16 69.4987 33.92 64.3788 33.92H59.8188V23.76H64.0588C69.1788 23.76 71.6588 21.44 71.6588 17.44C71.6588 14 69.4188 11.76 65.0988 11.76C60.6988 11.76 58.1388 14.4 57.4988 19.04H43.0188C43.7388 7.76 51.2588 0 65.4988 0C78.9388 0 87.0188 6.16 87.0188 15.68C87.0188 22.08 83.3388 26.24 77.3388 28C83.8988 29.36 88.4588 34 88.4588 40.96C88.4588 51.84 80.3788 58.96 65.2588 58.96Z" fill="currentColor"/>
</svg>
