<svg xmlns="http://www.w3.org/2000/svg" width="50" height="26" fill="none"><path fill="#747474" fill-rule="evenodd" d="M25.048 7.578c1.52 0 3.066.131 4.113.414.82.222 2.7.96 4.666 1.767 1.987.815 4.117 1.725 5.473 2.314.237.103.39.339.39.6v3.267c0 .36-.288.653-.644.653H34.86l-5.637 3.81a.638.638 0 0 1-.357.11h-8.119a.639.639 0 0 1-.368-.118l-5.375-3.802h-4.05a.649.649 0 0 1-.645-.653v-3.267c0-.26.152-.495.387-.599 1.335-.59 3.441-1.5 5.42-2.315 1.96-.807 3.854-1.547 4.733-1.77 1.104-.28 2.678-.411 4.2-.411Z" clip-rule="evenodd"/><path fill="#747474" fill-rule="evenodd" d="M39.046 0c.356 0 .645.292.645.653v12.282c0 .36-.289.653-.645.653a.649.649 0 0 1-.644-.653V.653c0-.36.288-.653.644-.653ZM10.954 0a.649.649 0 0 0-.645.653v12.282c0 .36.289.653.645.653a.649.649 0 0 0 .644-.653V.653A.649.649 0 0 0 10.954 0Z" clip-rule="evenodd"/><path fill="#747474" fill-rule="evenodd" d="M50 3.005c0 .36-.288.653-.644.653H28.995a.649.649 0 0 1-.645-.653c0-.36.289-.653.645-.653h20.36c.357 0 .645.292.645.653ZM0 3.005c0 .36.288.653.644.653h20.361a.649.649 0 0 0 .645-.653.649.649 0 0 0-.645-.653H.645A.649.649 0 0 0 0 3.005ZM16.663 16.26c.181.31.08.711-.226.895-.928.557-3.164 3.045-3.164 8.192 0 .36-.288.653-.644.653a.649.649 0 0 1-.644-.653c0-5.515 2.403-8.48 3.795-9.316a.64.64 0 0 1 .883.229ZM33.08 16.26a.658.658 0 0 0 .226.895c.927.557 3.163 3.045 3.163 8.192 0 .36.289.653.644.653a.649.649 0 0 0 .645-.653c0-5.515-2.404-8.48-3.796-9.316a.64.64 0 0 0-.882.229Z" clip-rule="evenodd"/></svg>