<svg xmlns="http://www.w3.org/2000/svg" width="52" height="52" fill="none"><path fill="#020202" fill-rule="evenodd" d="M29.307 11.87c-.568-2.963-.77-6.707-.942-11.87 4.89.009 8.959.071 12.3.502 3.795.49 6.288 1.417 7.882 2.951 1.526 1.586 2.459 4.16 2.95 8.022.43 3.37.494 7.424.503 12.157-5.163-.179-8.907-.38-11.871-.947-3.23-.617-5.391-1.644-7.314-3.5-1.857-1.924-2.889-4.086-3.508-7.315Zm10.822 17.445c2.964-.567 6.708-.768 11.871-.947-.01 4.733-.073 8.788-.502 12.158-.492 3.86-1.425 6.435-2.951 8.02-1.594 1.535-4.087 2.462-7.882 2.952-3.341.43-7.41.493-12.3.502.172-5.163.374-8.907.942-11.87.62-3.229 1.65-5.39 3.508-7.315 1.923-1.856 4.084-2.883 7.314-3.5ZM22.693 11.87c-.62 3.229-1.65 5.39-3.508 7.315-1.923 1.856-4.083 2.883-7.314 3.5-2.964.567-6.708.768-11.871.947.01-4.733.073-8.788.502-12.158.492-3.86 1.425-6.435 2.951-8.02C5.047 1.918 7.543.991 11.343.501 14.684.072 18.752.01 23.634 0c-.172 5.163-.374 8.907-.942 11.87ZM11.87 29.307c3.229.62 5.39 1.65 7.315 3.508 1.856 1.923 2.883 4.083 3.5 7.314.567 2.964.768 6.708.947 11.871-4.889-.009-8.957-.071-12.297-.502-3.795-.49-6.288-1.417-7.882-2.951-1.526-1.586-2.459-4.16-2.95-8.021-.43-3.37-.494-7.427-.503-12.161 5.163.172 8.907.374 11.87.942Z" clip-rule="evenodd"/></svg>