<svg width="267" height="143" viewBox="0 0 267 143" fill="none" xmlns="http://www.w3.org/2000/svg">
<g id="Group 1394" filter="url(#filter0_d_711_464)">
<g id="24/7">
<path d="M0 73.4814V70.7651L23.4159 45.9443C30.0661 38.8258 34.4682 33.1123 34.4682 27.4925C34.4682 22.9966 32.1267 19.9994 27.3498 19.9994C22.573 19.9994 19.5757 22.903 18.7327 30.8644H1.31129C1.96694 14.0986 12.0826 5.5752 28.2864 5.5752C44.6776 5.5752 53.3883 14.3796 53.3883 26.7432C53.3883 35.9222 48.2368 42.8534 40.7437 50.0655L31.3773 59.1508H53.8566V73.4814H0Z" fill="white"/>
<path d="M90.2421 73.4814V60.6495H57.6471V53.4374L85.5589 6.51183H108.694V47.4429H117.311V60.6495H108.694V73.4814H90.2421ZM75.7242 47.4429H90.7104V20.936L75.7242 47.4429Z" fill="white"/>
<path d="M104.795 129.715L134.487 43.1698H147.881L118.096 129.715H104.795Z" fill="white"/>
<path d="M159.975 123.627L178.708 72.2056H151.733V56.6574H202.686V58.6243L179.457 123.627H159.975Z" fill="white"/>
</g>
<path id="Vector" d="M231.372 0C219.998 0 210.744 9.25386 210.744 20.6283V29.1746C210.744 31.287 212.595 33.0053 214.87 33.0053H216.933C217.48 33.0053 218.004 32.788 218.391 32.4011C218.778 32.0143 218.995 31.4896 218.995 30.9425V20.3333C218.995 19.7862 218.778 19.2615 218.391 18.8747C218.004 18.4878 217.48 18.2705 216.933 18.2705H215.06C216.207 10.2873 223.076 4.12566 231.372 4.12566C239.669 4.12566 246.538 10.2873 247.685 18.2705H245.812C245.265 18.2705 244.74 18.4878 244.354 18.8747C243.967 19.2615 243.749 19.7862 243.749 20.3333V33.0053C243.749 35.2806 241.899 37.131 239.624 37.131H235.498V35.0681H227.247V41.2566H239.624C244.174 41.2566 247.875 37.5559 247.875 33.0053C250.15 33.0053 252.001 31.287 252.001 29.1746V20.6283C252.001 9.25386 242.747 0 231.372 0Z" fill="white"/>
</g>
<defs>
<filter id="filter0_d_711_464" x="0" y="0" width="267" height="142.715" filterUnits="userSpaceOnUse" color-interpolation-filters="sRGB">
<feFlood flood-opacity="0" result="BackgroundImageFix"/>
<feColorMatrix in="SourceAlpha" type="matrix" values="0 0 0 0 0 0 0 0 0 0 0 0 0 0 0 0 0 0 127 0" result="hardAlpha"/>
<feOffset dx="15" dy="13"/>
<feComposite in2="hardAlpha" operator="out"/>
<feColorMatrix type="matrix" values="0 0 0 0 0 0 0 0 0 0 0 0 0 0 0 0 0 0 0.25 0"/>
<feBlend mode="normal" in2="BackgroundImageFix" result="effect1_dropShadow_711_464"/>
<feBlend mode="normal" in="SourceGraphic" in2="effect1_dropShadow_711_464" result="shape"/>
</filter>
</defs>
</svg>
