<svg xmlns="http://www.w3.org/2000/svg" width="267" height="143" fill="none"><g fill="#fff" filter="url(#a)"><path d="M0 73.481v-2.716l23.416-24.82c6.65-7.12 11.052-12.833 11.052-18.453 0-4.495-2.341-7.493-7.118-7.493s-7.774 2.904-8.617 10.865H1.31C1.967 14.1 12.083 5.575 28.286 5.575c16.392 0 25.102 8.805 25.102 21.168 0 9.18-5.151 16.11-12.644 23.323l-9.367 9.085h22.48v14.33H0ZM90.242 73.481V60.65H57.647v-7.213L85.56 6.512h23.135v40.93h8.617V60.65h-8.617V73.48H90.242ZM75.724 47.443H90.71V20.936L75.724 47.443ZM104.795 129.715l29.692-86.545h13.394l-29.785 86.545h-13.301ZM159.975 123.627l18.733-51.421h-26.975V56.657h50.953v1.967l-23.229 65.003h-19.482ZM231.372 0c-11.374 0-20.628 9.254-20.628 20.628v8.547c0 2.112 1.851 3.83 4.126 3.83h2.063a2.062 2.062 0 0 0 2.062-2.063V20.334a2.062 2.062 0 0 0-2.062-2.063h-1.873c1.147-7.983 8.016-14.144 16.312-14.144 8.297 0 15.166 6.161 16.313 14.144h-1.873a2.063 2.063 0 0 0-2.063 2.063v12.672a4.13 4.13 0 0 1-4.125 4.126h-4.126v-2.063h-8.251v6.189h12.377c4.55 0 8.251-3.701 8.251-8.252 2.275 0 4.126-1.718 4.126-3.83v-8.547C252.001 9.254 242.747 0 231.372 0Z"/></g><defs><filter id="a" width="267" height="142.715" x="0" y="0" color-interpolation-filters="sRGB" filterUnits="userSpaceOnUse"><feFlood flood-opacity="0" result="BackgroundImageFix"/><feColorMatrix in="SourceAlpha" result="hardAlpha" values="0 0 0 0 0 0 0 0 0 0 0 0 0 0 0 0 0 0 127 0"/><feOffset dx="15" dy="13"/><feComposite in2="hardAlpha" operator="out"/><feColorMatrix values="0 0 0 0 0 0 0 0 0 0 0 0 0 0 0 0 0 0 0.25 0"/><feBlend in2="BackgroundImageFix" result="effect1_dropShadow_711_464"/><feBlend in="SourceGraphic" in2="effect1_dropShadow_711_464" result="shape"/></filter></defs></svg>