<svg width="34" height="34" viewBox="0 0 34 34" fill="none" xmlns="http://www.w3.org/2000/svg">
<path d="M8.26398 32.7433C8.19048 32.6094 8.16598 32.4389 8.22723 32.2075C8.45997 31.3064 8.83971 30.4662 9.07246 29.5651C9.3052 28.7614 9.61145 27.9942 9.78294 27.154C9.95444 26.4477 10.1872 25.778 10.3219 25.1082C10.4567 24.609 10.5302 24.0975 10.5914 23.5983C10.6649 23.1964 10.6894 22.758 10.7629 22.3562C10.7997 22.0518 10.7997 21.7839 10.7997 21.4794C10.7629 21.0411 10.7629 20.6027 10.6282 20.1765C10.5302 19.7746 10.5302 19.2997 10.3219 18.9344C10.0524 18.4595 9.81969 17.9237 9.4767 17.4975C9.03571 16.9252 8.57022 16.4259 8.09248 15.9267C7.74949 15.5857 7.38199 15.2569 7.0145 14.9525C6.43877 14.5141 5.86303 14.0757 5.26279 13.6495C4.58906 13.1746 3.87857 12.7119 3.16809 12.237C2.35961 11.6768 1.51438 11.1776 0.681396 10.6418C0.5099 10.5443 0.313904 10.3739 0.179157 10.1668C-0.163835 9.63105 0.04441 9.15614 0.313904 8.65688C0.718145 7.98713 1.35513 8.02367 1.89412 8.18197C3.10684 8.58382 4.31956 8.98566 5.53229 9.35098C6.51226 9.61888 7.45549 9.95983 8.45997 10.1547C9.26845 10.3251 10.0769 10.4956 10.8854 10.593C11.6571 10.6905 12.4044 10.6905 13.1394 10.6296C13.7519 10.5565 14.5576 10.3456 14.9162 10.1913C15.2748 10.0369 15.2151 10.0642 15.5648 9.86242C15.9145 9.66069 16.3733 9.38751 16.7163 9.05873C16.9245 8.88825 17.1205 8.7543 17.3288 8.55946C17.8678 8.02367 18.4067 7.48787 18.8845 6.87901C19.2275 6.44063 19.5582 6.00225 19.9012 5.57605C20.134 5.27162 20.3422 4.94284 20.5749 4.60188C20.9424 4.06608 21.3222 3.56682 21.6529 3.03102C22.0939 2.36128 22.5228 1.81993 22.9025 1.11365C23.0737 0.795311 23.2999 0.48014 23.5761 0.218092C23.8523 -0.0439552 24.5561 -0.0863371 24.9971 0.181561C25.2053 0.31551 25.3646 0.412927 25.5361 0.619939C25.8423 0.9609 25.8423 1.32622 25.7076 1.72806C25.4013 2.62917 25.1318 3.56682 24.8256 4.4801C24.6909 4.91848 24.5561 5.38122 24.4214 5.8196C24.2866 6.31886 24.0784 6.8303 23.9804 7.32957C23.7844 8.30374 23.4414 9.27791 23.3434 10.2764C23.2454 11.0436 23.1351 11.8229 23.2086 12.5901C23.2821 13.4303 23.4169 14.2706 23.8211 15.0743C24.0294 15.4761 24.2989 15.8414 24.4949 16.2433C24.5929 16.4746 24.8379 16.6451 24.9726 16.8156C25.2788 17.1809 25.6096 17.5219 25.9893 17.8506C26.6018 18.423 27.2388 18.9222 27.9125 19.4215C28.8558 20.1887 29.9337 20.7975 30.9137 21.5038C31.416 21.8691 32.0284 22.137 32.5307 22.5389C32.9349 22.8433 33.4127 23.0381 33.7801 23.44C34.0864 23.8053 34.0129 24.1828 33.9149 24.5481C33.8169 24.9134 33.5719 25.2544 33.2044 25.4492C32.9717 25.5832 32.6654 25.6197 32.3959 25.5466C31.7589 25.3396 31.1465 25.1082 30.5095 24.9378C29.897 24.7673 29.3335 24.5359 28.7578 24.3654C27.6798 24.0245 26.5651 23.7322 25.4503 23.4643C24.6419 23.2573 23.8334 23.099 23.0249 23.0259C22.3512 22.9529 21.6774 22.9894 21.0037 23.0259C19.9625 23.0625 19.0805 23.4643 18.2108 23.9027C17.7085 24.1341 17.2675 24.5359 16.8265 24.9378C16.3488 25.4127 15.8466 25.8754 15.4056 26.3747C14.9033 26.9835 14.3888 27.5802 13.9601 28.2134C13.2496 29.2241 12.5391 30.2227 11.8654 31.2577C11.4979 31.83 11.1182 32.4024 10.7507 32.9625C10.3832 33.5348 9.5012 33.8636 8.72946 33.2304C8.42322 33.1452 8.42322 33.1452 8.26398 32.7433Z" fill="#FF5C00"/>
</svg>
