<svg xmlns="http://www.w3.org/2000/svg" width="2236" height="337" fill="none"><g fill="#ABABA8" fill-opacity=".4" opacity=".9"><path d="M4.276 263.43c86.782 4.746 145.533 7.119 176.256 7.119 7.284 0 12.985-2.057 17.102-6.17 4.435-4.43 6.652-10.284 6.652-17.562v-42.718H95.016c-33.255 0-57.485-7.437-72.687-22.309C7.443 166.601 0 142.394 0 109.169v-14.24c0-33.225 7.443-57.274 22.329-72.146C37.532 7.594 61.76 0 95.017 0H261.77v66.45H114.02c-19.003 0-28.505 9.494-28.505 28.48v9.493c0 18.985 9.502 28.478 28.505 28.478h85.515c31.039 0 53.843 7.278 68.412 21.834 14.569 14.556 21.854 37.339 21.854 68.35v23.732c0 31.01-7.285 53.793-21.854 68.349C253.378 329.722 230.574 337 199.535 337c-16.153 0-33.256-.316-51.309-.949l-43.708-1.899c-32.305-1.582-65.72-3.797-100.242-6.645V263.43ZM418.036 332.254h-85.515V0h85.515v130.528h42.757L534.906 0h90.266l-93.116 163.754 92.641 168.5h-90.266l-73.638-135.275h-42.757v135.275Z"/><path d="M615.566 0h90.266l78.389 161.38L862.609 0h90.266L826.978 244.444v87.81h-85.515v-87.81L615.566 0ZM1057.36 265.803h173.4v66.451H971.841V0h85.519v265.803ZM1323.51 332.254h-92.64L1356.77 0h95.02l125.89 332.254h-92.64l-21.38-59.331h-118.77l-21.38 59.331Zm42.76-121.036h76.01l-38-111.542-38.01 111.542ZM1601.42 0h199.53c33.26 0 57.33 7.594 72.22 22.783 15.2 14.872 22.8 38.921 22.8 72.147v42.718c0 26.264-4.43 46.674-13.3 61.229-8.55 14.556-22.33 24.208-41.33 28.954l59.38 104.423h-92.64l-54.63-99.677h-66.52v99.677h-85.51V0Zm209.04 94.93c0-18.986-9.51-28.48-28.51-28.48h-95.02v99.677h95.02c19 0 28.51-9.493 28.51-28.479V94.93ZM2028.86 332.254h-85.51V0h85.51v130.528h42.76L2145.73 0H2236l-93.12 163.754 92.64 168.5h-90.26l-73.64-135.275h-42.76v135.275Z"/></g></svg>