<svg width="29" height="135" viewBox="0 0 29 135" fill="none" xmlns="http://www.w3.org/2000/svg">
<path d="M27.1807 55.9918H1.1133V61.5803H5.51217L10.8343 124.564C10.8343 124.564 7.46723 125.73 7.46723 128.378C7.46723 131.027 14.147 135 14.147 135C14.147 135 20.3923 130.974 20.3923 128.114C20.3923 125.253 17.3783 124.432 17.3783 124.432L23.6779 61.5274H27.1807V55.9918Z" fill="#FF5C00"/>
<path d="M29 41.6892L22.7275 53.4491H5.78371L0 41.6892H7.41292C7.41292 41.6892 8.74345 41.0006 6.81554 39.7028C4.88764 38.4049 0.0271536 34.2731 0.0271536 27.5456C0.0271536 20.8181 3.77434 18.3549 3.36704 15.3885C4.99625 16.7657 5.29494 21.136 4.69757 23.3078C4.10019 25.4797 3.42135 30.2472 7.52154 33.6109C13.5496 38.5374 12.9794 41.6892 12.9794 41.6892H17.0253C17.0253 41.6892 18.22 38.4049 22.1573 35.412C24.7369 33.4255 25.9588 31.4921 24.9541 27.7575C24.7369 26.9629 24.8183 25.3737 25.986 24.023C25.986 24.023 25.8773 24.5792 26.6648 25.6916C28.1854 27.7575 30.1676 33.1872 28.0768 35.8888C25.3071 39.4909 22.6189 39.6498 22.6189 41.7157C25.2528 41.6892 29 41.6892 29 41.6892Z" fill="#FF5C00"/>
<path d="M15.8577 36.4715C15.8577 36.4715 22.9448 31.9953 22.9448 25.4532C22.9448 18.9111 19.1161 15.4149 15.559 13.0047C12.0019 10.5945 8.68914 8.81989 8.68914 5.32372C8.68914 1.82755 10.2097 0 10.2097 0C10.2097 0 5.78371 3.12537 5.29494 9.08475C5.05056 11.9982 5.18633 14.382 8.71629 21.3479C12.2463 28.3137 11.7032 32.9223 11.6217 33.6109C14.2556 27.4926 15.9934 24.4467 14.8802 20.5268C20.2837 26.1418 17.161 34.2731 15.8577 36.4715Z" fill="#FF5C00"/>
</svg>
