<svg xmlns="http://www.w3.org/2000/svg" width="65" height="37" fill="none"><path fill="#020202" fill-rule="evenodd" d="M63.503 2.483c.458-1.46 0-2.483-2.133-2.483h-7.113c-1.829 0-2.641.925-3.099 1.947 0 0-3.607 8.471-8.738 13.924-1.676 1.607-2.387 2.094-3.302 2.094-.457 0-1.118-.487-1.118-1.948V2.483C38 .73 37.492 0 35.968 0H24.792c-1.118 0-1.83.828-1.83 1.558 0 1.655 2.541 2.045 2.846 6.62v10.03c0 2.19-.407 2.58-1.321 2.58-2.388 0-8.28-8.47-11.735-18.208C12.04.78 11.38 0 9.55 0H2.439C.406 0 0 .925 0 1.947c0 1.802 2.388 10.76 11.227 22.59C17.12 32.618 25.401 37 32.92 37c4.522 0 5.08-.974 5.08-2.629v-6.134c0-1.947.407-2.337 1.88-2.337 1.067 0 2.845.487 7.062 4.382C51.768 34.907 52.58 37 55.273 37h7.113c2.032 0 3.048-.974 2.438-2.872-.66-1.9-2.946-4.674-5.994-7.985-1.677-1.898-4.166-3.894-4.877-4.917-1.067-1.314-.763-1.898 0-3.018 0-.049 8.687-11.733 9.55-15.725Z" clip-rule="evenodd"/></svg>