<svg xmlns="http://www.w3.org/2000/svg" width="22" height="12" fill="none"><path fill="#FF5C00" fill-rule="evenodd" d="M21.494.805c.154-.473 0-.805-.723-.805h-2.407c-.619 0-.894.3-1.049.632 0 0-1.22 2.747-2.957 4.515-.568.521-.809.68-1.118.68-.155 0-.378-.159-.378-.632V.805c0-.568-.172-.805-.688-.805H8.39c-.378 0-.619.268-.619.505 0 .537.86.663.963 2.148v3.252c0 .71-.138.837-.447.837-.808 0-2.803-2.747-3.972-5.905C4.076.253 3.852 0 3.233 0H.825C.138 0 0 .3 0 .632c0 .584.808 3.49 3.8 7.326C5.795 10.578 8.597 12 11.142 12c1.53 0 1.72-.316 1.72-.853v-1.99c0-.63.137-.757.636-.757.361 0 .963.158 2.39 1.421 1.633 1.5 1.909 2.179 2.82 2.179h2.407c.688 0 1.032-.316.826-.932-.224-.615-.998-1.515-2.03-2.59-.567-.615-1.41-1.262-1.65-1.594-.361-.426-.258-.616 0-.979 0-.016 2.94-3.805 3.233-5.1Z" clip-rule="evenodd"/></svg>