<svg width="20" height="14" viewBox="0 0 20 14" fill="none" xmlns="http://www.w3.org/2000/svg">
<path d="M19.2812 2.34375C19.0625 1.5 18.4062 0.84375 17.5625 0.625C16.0625 0.21875 10 0.21875 10 0.21875C10 0.21875 3.9375 0.21875 2.4375 0.625C1.59375 0.84375 0.9375 1.5 0.71875 2.34375C0.3125 3.875 0.3125 7 0.3125 7C0.3125 7 0.3125 10.1562 0.71875 11.6562C0.9375 12.5 1.59375 13.1562 2.4375 13.375C3.9375 13.7812 10 13.7812 10 13.7812C10 13.7812 16.0625 13.7812 17.5625 13.375C18.4062 13.1562 19.0625 12.5 19.2812 11.6562C19.6875 10.1562 19.6875 7 19.6875 7C19.6875 7 19.6875 3.875 19.2812 2.34375ZM8.0625 9.90625V4.09375L13.0938 7L8.0625 9.90625Z" fill="#FF5C00"/>
</svg>
