<svg width="64" height="45" viewBox="0 0 64 45" fill="none" xmlns="http://www.w3.org/2000/svg">
<path d="M62.6581 7.05069C61.9355 4.25115 59.7677 2.07373 56.9806 1.34793C52.0258 2.47208e-07 32 0 32 0C32 0 11.9742 2.47208e-07 7.01935 1.34793C4.23226 2.07373 2.06452 4.25115 1.34194 7.05069C0 12.1313 0 22.5 0 22.5C0 22.5 0 32.9724 1.34194 37.9493C2.06452 40.7488 4.23226 42.9263 7.01935 43.6521C11.9742 45 32 45 32 45C32 45 52.0258 45 56.9806 43.6521C59.7677 42.9263 61.9355 40.7488 62.6581 37.9493C64 32.9724 64 22.5 64 22.5C64 22.5 64 12.1313 62.6581 7.05069ZM25.6 32.1429V12.8571L42.2194 22.5L25.6 32.1429Z" fill="#FC0303"/>
</svg>
