<?xml version="1.0" encoding="UTF-8"?>
<svg id="Layer_1" data-name="Layer 1" xmlns="http://www.w3.org/2000/svg" viewBox="0 0 198.48 198.48">
  <defs>
    <style>
      .cls-1 {
        fill: #fff;
      }

      .cls-2 {
        fill: #ff5c00;
      }

      .cls-3 {
        fill: #3f4fff;
      }
    </style>
  </defs>
  <circle cx="99.24" cy="99.24" r="99.24"/>
  <g>
    <path class="cls-1" d="M36.53,162.43c-.7,.64-1.38,1.07-2.05,1.3-.49,.16-1,.24-1.53,.22-.52-.02-1-.12-1.43-.32-.57-.26-1.11-.67-1.62-1.23-.93-1.01-1.35-2.11-1.28-3.29,.07-1.18,.67-2.28,1.79-3.3,1.11-1.01,2.25-1.5,3.43-1.47,1.18,.03,2.23,.55,3.15,1.56,.93,1.02,1.36,2.12,1.29,3.29-.07,1.17-.66,2.26-1.75,3.26Zm-1.35-1.39c.78-.71,1.2-1.43,1.28-2.15,.07-.73-.14-1.37-.65-1.92-.5-.55-1.12-.82-1.84-.81-.72,0-1.48,.38-2.28,1.1-.79,.72-1.22,1.43-1.29,2.13-.07,.7,.15,1.33,.67,1.91,.52,.57,1.14,.85,1.85,.85,.71,0,1.46-.37,2.25-1.1Z"/>
    <path class="cls-1" d="M25.03,156.45l-4.03-5.67,1.27-.91,2.94,4.14,1.76-1.25-1.46-2.05c-.4-.56-.67-1.08-.79-1.55-.13-.47-.1-.97,.09-1.5,.19-.53,.53-.97,1.03-1.33,.51-.37,1.05-.54,1.6-.54,.56,0,1.02,.13,1.4,.38,.38,.24,.79,.68,1.23,1.31l2.55,3.58-7.59,5.39Zm5.22-6.02l-1.06-1.49c-.34-.48-.6-.79-.78-.95-.18-.16-.41-.25-.68-.28-.27-.02-.52,.05-.76,.22-.35,.25-.52,.56-.5,.92s.24,.85,.67,1.45l1.11,1.56,2.01-1.43Z"/>
    <path class="cls-1" d="M23.17,145.51c-.83,.45-1.6,.7-2.3,.76-.52,.04-1.03-.01-1.53-.15-.51-.14-.94-.36-1.31-.66-.49-.39-.92-.92-1.28-1.59-.65-1.21-.8-2.37-.44-3.5,.36-1.13,1.2-2.05,2.53-2.77,1.32-.71,2.55-.91,3.68-.6,1.14,.32,2.03,1.07,2.68,2.28,.66,1.22,.81,2.38,.46,3.51-.35,1.12-1.18,2.03-2.49,2.74Zm-.98-1.67c.93-.5,1.51-1.1,1.76-1.78s.19-1.36-.16-2.02c-.36-.66-.89-1.07-1.59-1.24s-1.53,0-2.48,.52c-.94,.51-1.53,1.09-1.77,1.75-.24,.66-.18,1.33,.19,2.01,.37,.68,.9,1.1,1.59,1.27,.69,.16,1.51,0,2.45-.52Z"/>
    <path class="cls-1" d="M22.14,133.55l-8.65,3.43-1.11-2.8c-.42-1.06-.65-1.77-.69-2.13-.07-.55,.05-1.07,.35-1.58s.8-.9,1.49-1.17c.53-.21,1.02-.29,1.45-.24,.44,.05,.82,.18,1.14,.4,.32,.21,.58,.46,.77,.74,.25,.38,.53,.97,.84,1.76l.45,1.14,3.26-1.29,.69,1.75Zm-7.88,1.1l2.46-.97-.38-.96c-.27-.69-.5-1.13-.68-1.33-.18-.2-.4-.32-.64-.38-.24-.06-.5-.03-.75,.07-.31,.13-.54,.32-.67,.59-.13,.27-.17,.55-.11,.86,.04,.22,.19,.65,.44,1.28l.33,.84Z"/>
    <path class="cls-1" d="M14.56,126.71c-.92,.25-1.72,.32-2.42,.21-.51-.08-1-.25-1.46-.51-.46-.26-.83-.57-1.12-.95-.39-.5-.68-1.11-.88-1.84-.36-1.33-.23-2.5,.38-3.51,.61-1.01,1.64-1.72,3.11-2.11,1.45-.39,2.69-.3,3.72,.27,1.03,.57,1.72,1.51,2.08,2.83,.36,1.34,.24,2.51-.37,3.52-.6,1.01-1.62,1.71-3.05,2.09Zm-.56-1.85c1.02-.27,1.72-.72,2.12-1.33,.4-.61,.5-1.28,.31-2-.19-.72-.61-1.25-1.26-1.57s-1.49-.35-2.53-.07c-1.03,.28-1.74,.71-2.12,1.3-.38,.59-.48,1.25-.28,2,.2,.75,.62,1.28,1.25,1.6,.64,.32,1.47,.34,2.51,.06Z"/>
    <path class="cls-1" d="M16.31,114.85l-9.21,1.31-.26-1.86,3.62-.52-.52-3.64-3.63,.52-.27-1.86,9.21-1.31,.26,1.86-4.03,.58,.52,3.64,4.03-.57,.26,1.86Z"/>
    <path class="cls-1" d="M15.05,105.04l-9.3,.23-.05-1.88,3.66-.09-.09-3.68-3.66,.09-.05-1.88,9.3-.23,.05,1.88-4.07,.1,.09,3.68,4.07-.1,.05,1.88Z"/>
    <path class="cls-1" d="M10.32,95.08c-.94-.09-1.72-.31-2.34-.65-.45-.26-.85-.58-1.19-.98-.34-.4-.58-.83-.72-1.28-.19-.6-.25-1.28-.17-2.03,.13-1.37,.66-2.42,1.59-3.15,.93-.74,2.14-1.03,3.65-.89,1.49,.14,2.62,.66,3.39,1.56,.77,.9,1.08,2.02,.95,3.38-.13,1.38-.66,2.43-1.58,3.16-.92,.73-2.12,1.03-3.59,.88Zm.12-1.93c1.05,.1,1.87-.06,2.46-.5s.92-1.02,.99-1.77-.14-1.38-.63-1.91c-.49-.53-1.27-.85-2.35-.95-1.06-.1-1.88,.05-2.44,.47-.57,.41-.89,1.01-.96,1.78-.08,.77,.13,1.42,.61,1.94,.48,.52,1.26,.84,2.32,.94Z"/>
    <path class="cls-1" d="M13.73,84.28l-1.75-.33,.66-3.44,1.75,.33-.66,3.44Z"/>
    <path class="cls-1" d="M15.46,73.07l1.05-1.59c.9,.55,1.5,1.2,1.79,1.96,.3,.76,.31,1.62,.04,2.58-.34,1.19-1.02,2.05-2.05,2.58-1.03,.54-2.25,.6-3.66,.2-1.49-.42-2.54-1.14-3.14-2.14s-.73-2.13-.37-3.39c.31-1.09,.89-1.89,1.73-2.39,.5-.3,1.13-.45,1.91-.45l-.08,1.91c-.5-.03-.92,.09-1.29,.35-.36,.26-.62,.63-.75,1.11-.19,.66-.1,1.27,.25,1.82,.36,.55,1.07,.98,2.14,1.28,1.13,.32,2,.35,2.59,.08,.6-.27,.99-.73,1.17-1.38,.14-.48,.1-.94-.1-1.37-.21-.43-.62-.82-1.23-1.16Z"/>
    <path class="cls-1" d="M11.39,66.64l2.85-6.83,8.59,3.58-.72,1.73-7.15-2.98-1.4,3.36,7.15,2.98-.72,1.73-8.59-3.58Z"/>
    <path class="cls-1" d="M19.69,59.25c-.82-.47-1.44-.99-1.86-1.55-.31-.42-.53-.88-.68-1.38-.15-.5-.19-.99-.13-1.46,.07-.62,.3-1.27,.67-1.93,.68-1.19,1.59-1.93,2.74-2.23,1.15-.29,2.38-.07,3.69,.68,1.3,.74,2.12,1.68,2.46,2.81s.16,2.29-.51,3.48c-.68,1.2-1.59,1.95-2.73,2.24-1.14,.29-2.35,.07-3.64-.66Zm.9-1.71c.92,.52,1.73,.71,2.44,.55s1.25-.56,1.62-1.21c.37-.65,.44-1.32,.21-2s-.82-1.29-1.75-1.83c-.93-.53-1.73-.72-2.42-.57-.69,.15-1.22,.56-1.61,1.23-.38,.67-.46,1.35-.23,2.02,.23,.68,.81,1.28,1.74,1.81Z"/>
    <path class="cls-1" d="M29.28,52.07l-7.5-5.51,1.79-2.43c.68-.92,1.16-1.49,1.44-1.72,.43-.35,.94-.53,1.53-.54,.59-.01,1.18,.2,1.78,.64,.46,.34,.79,.71,.98,1.11,.19,.4,.28,.79,.27,1.18,0,.39-.08,.74-.22,1.05-.2,.41-.54,.96-1.05,1.65l-.73,.99,2.83,2.08-1.11,1.51Zm-5.12-6.09l2.13,1.56,.61-.83c.44-.6,.69-1.02,.76-1.28,.07-.26,.06-.51-.02-.74-.08-.24-.24-.44-.46-.6-.27-.2-.56-.29-.85-.26-.29,.03-.55,.15-.78,.37-.17,.15-.45,.51-.85,1.05l-.54,.73Z"/>
    <path class="cls-1" d="M36.15,43.31l-5.73-5.19-1.85,2.05-1.17-1.06,4.96-5.48,1.17,1.06-1.85,2.04,5.73,5.19-1.26,1.39Z"/>
    <path class="cls-1" d="M34.33,31.67l1.32-1.17,4.12,4.63-1.3-7.13,1.4-1.25,6.19,6.95-1.31,1.17-4.04-4.54,1.22,7.04-1.4,1.25-6.18-6.95Z"/>
    <path class="cls-1" d="M42.65,24.56l3.05-2.13c.6-.42,1.07-.71,1.4-.87,.33-.16,.67-.24,1.02-.24s.69,.07,1.03,.23,.63,.4,.86,.73c.25,.36,.38,.75,.4,1.19,.01,.43-.09,.84-.32,1.22,.56-.19,1.08-.21,1.56-.05,.48,.15,.87,.45,1.18,.89,.24,.35,.4,.74,.46,1.18s.03,.86-.11,1.25c-.14,.39-.4,.75-.78,1.08-.24,.21-.84,.66-1.82,1.35l-2.6,1.81-5.32-7.63Zm2.43,.2l1.23,1.77,1.01-.71c.6-.42,.97-.69,1.1-.81,.24-.21,.39-.45,.43-.71s-.02-.51-.19-.75c-.17-.24-.36-.38-.6-.44-.23-.06-.49-.01-.77,.14-.17,.09-.61,.39-1.34,.89l-.88,.62Zm2.12,3.04l1.42,2.04,1.43-.99c.56-.39,.9-.65,1.03-.78,.2-.2,.32-.43,.35-.69,.03-.26-.05-.53-.24-.8-.16-.23-.35-.39-.57-.47-.22-.08-.46-.09-.72-.01-.26,.07-.74,.35-1.44,.84l-1.24,.87Z"/>
    <path class="cls-1" d="M56.18,26.64l-4.38-8.21,1.66-.88,1.72,3.23,3.25-1.73-1.73-3.23,1.66-.89,4.38,8.21-1.66,.89-1.92-3.59-3.25,1.74,1.92,3.59-1.66,.88Z"/>
    <path class="cls-1" d="M61.73,13.29l1.76-.65,1.29,3.49,2.36-.87c.62-.23,1.18-.34,1.69-.34s.99,.17,1.45,.49c.46,.33,.79,.77,1,1.33,.22,.59,.25,1.16,.1,1.7-.15,.54-.39,.95-.72,1.23-.33,.28-.86,.55-1.59,.82l-4.12,1.52-3.22-8.73Zm4.44,6.62l1.72-.63c.55-.2,.92-.37,1.12-.5,.2-.13,.34-.33,.44-.58s.1-.52,0-.79c-.14-.39-.39-.63-.74-.72-.35-.09-.88,0-1.6,.26l-1.79,.66,.85,2.31Zm3.86-9.68l1.76-.65,3.22,8.73-1.76,.65-3.22-8.73Z"/>
    <path class="cls-1" d="M75.4,8.63l1.72-.38,1.33,6.05,2.35-6.86,1.83-.4,2.01,9.09-1.72,.38-1.31-5.93-2.37,6.74-1.83,.41-2.01-9.09Zm4.21-3.3l.85-.19c.07,.57-.03,1.06-.3,1.46-.27,.4-.69,.66-1.24,.78-.55,.12-1.03,.06-1.45-.18-.42-.24-.71-.64-.88-1.19l.85-.19c.09,.29,.25,.49,.46,.6,.21,.11,.49,.13,.82,.06,.34-.08,.58-.21,.73-.4,.14-.19,.2-.44,.16-.74Z"/>
    <path class="cls-1" d="M90.65,10.64c-.04-.95,.06-1.75,.31-2.4,.19-.48,.46-.92,.81-1.32,.35-.39,.74-.69,1.16-.89,.57-.27,1.23-.43,1.99-.46,1.37-.06,2.49,.31,3.35,1.12,.86,.81,1.33,1.97,1.4,3.49,.07,1.5-.28,2.69-1.06,3.58-.78,.89-1.85,1.36-3.21,1.42-1.38,.06-2.5-.3-3.36-1.11-.86-.81-1.32-1.95-1.39-3.43Zm1.93-.15c.05,1.05,.33,1.84,.84,2.36,.51,.52,1.14,.76,1.89,.73s1.35-.33,1.8-.89,.66-1.38,.61-2.46c-.05-1.06-.32-1.85-.81-2.35-.49-.5-1.12-.73-1.9-.7-.77,.04-1.38,.33-1.83,.88-.45,.55-.65,1.36-.6,2.43Z"/>
    <path class="cls-1" d="M103.66,8.25l-1.79-.55c.49-1.48,1.66-2.16,3.5-2.04,1.09,.07,1.9,.37,2.42,.89,.52,.52,.76,1.1,.72,1.74-.03,.44-.18,.83-.46,1.17-.28,.34-.68,.63-1.2,.86,.6,.25,1.04,.58,1.33,.99,.28,.41,.4,.89,.37,1.46-.05,.81-.4,1.45-1.03,1.92-.63,.46-1.54,.65-2.73,.57-.97-.07-1.73-.28-2.27-.64-.54-.36-.92-.99-1.14-1.9l1.75-.45c.14,.57,.35,.95,.63,1.13,.28,.18,.64,.29,1.07,.32,.59,.04,1.03-.06,1.32-.3,.29-.24,.44-.52,.46-.85,.03-.38-.11-.7-.4-.95-.29-.25-.74-.4-1.36-.44l-.42-.03,.09-1.4h.21c.58,.05,1.02-.04,1.34-.28,.32-.24,.5-.57,.53-.99,.02-.34-.08-.63-.31-.88-.23-.25-.58-.39-1.04-.42-.79-.05-1.31,.3-1.59,1.06Z"/>
    <path class="cls-1" d="M112.89,6.57l6.33,1.13-1.36,7.62,.81,.14-.63,3.54-1.54-.27,.36-2-5.77-1.03-.36,2-1.54-.27,.63-3.54,.78,.14c.52-.72,.93-1.58,1.24-2.59,.3-1.01,.6-2.31,.88-3.89l.17-.97Zm1.49,1.85c-.5,2.78-1.11,4.77-1.84,5.95l3.48,.62,1.09-6.09-2.72-.49Z"/>
    <path class="cls-1" d="M121.11,12.93c.28-.91,.65-1.62,1.11-2.15,.34-.39,.74-.71,1.2-.97,.46-.25,.93-.4,1.4-.45,.63-.06,1.3,.02,2.03,.24,1.31,.4,2.24,1.13,2.77,2.19,.54,1.06,.58,2.31,.14,3.75-.44,1.44-1.18,2.44-2.21,3.01-1.03,.57-2.2,.66-3.5,.25-1.32-.41-2.25-1.13-2.78-2.18-.53-1.05-.58-2.28-.15-3.7Zm1.87,.51c-.31,1.01-.31,1.84,0,2.5,.3,.66,.81,1.1,1.53,1.32,.72,.22,1.38,.14,2-.23,.62-.38,1.08-1.08,1.4-2.11,.31-1.02,.32-1.85,.03-2.49-.29-.64-.81-1.07-1.55-1.3-.74-.23-1.42-.16-2.02,.21-.61,.37-1.07,1.06-1.39,2.09Z"/>
    <path class="cls-1" d="M130.21,20.73l3.76-8.51,2.76,1.22c1.05,.46,1.71,.81,1.99,1.03,.43,.34,.72,.8,.86,1.38,.14,.57,.06,1.2-.24,1.88-.23,.52-.52,.92-.87,1.19-.35,.27-.71,.45-1.09,.52-.38,.07-.74,.08-1.07,0-.45-.1-1.06-.32-1.84-.67l-1.12-.5-1.42,3.21-1.72-.76Zm4.85-6.31l-1.07,2.42,.94,.42c.68,.3,1.15,.46,1.42,.47,.27,.01,.51-.05,.72-.18,.21-.13,.38-.32,.49-.58,.14-.31,.16-.61,.07-.89-.09-.28-.27-.51-.52-.68-.19-.13-.59-.33-1.21-.6l-.83-.37Z"/>
    <path class="cls-1" d="M140.44,20.31c.48-.82,1.01-1.43,1.58-1.84,.42-.3,.89-.52,1.39-.66,.51-.14,.99-.18,1.46-.11,.62,.08,1.26,.32,1.92,.7,1.18,.7,1.91,1.62,2.19,2.77,.28,1.15,.03,2.38-.74,3.68-.76,1.29-1.71,2.1-2.85,2.41-1.13,.32-2.29,.13-3.47-.57-1.19-.7-1.93-1.63-2.2-2.77-.28-1.14-.04-2.35,.71-3.63Zm1.7,.93c-.54,.91-.73,1.72-.59,2.44,.14,.71,.54,1.26,1.18,1.64,.65,.38,1.31,.46,2,.24,.69-.22,1.31-.79,1.85-1.73,.54-.92,.75-1.72,.61-2.41-.14-.69-.54-1.23-1.21-1.62-.67-.39-1.34-.48-2.02-.26-.68,.22-1.29,.79-1.83,1.71Z"/>
    <path class="cls-1" d="M153.16,22.62l2.95,2.26c.58,.45,1,.81,1.25,1.08s.43,.57,.54,.9c.11,.33,.14,.68,.09,1.05-.05,.37-.19,.72-.43,1.04-.27,.35-.6,.59-1.01,.74s-.83,.17-1.26,.07c.35,.48,.53,.96,.52,1.47,0,.5-.16,.97-.49,1.39-.26,.34-.58,.6-.99,.8-.4,.2-.81,.29-1.22,.27-.42-.02-.84-.16-1.27-.42-.27-.16-.88-.61-1.84-1.33l-2.51-1.93,5.66-7.39Zm-1.7,5.31l-1.51,1.98,1.38,1.06c.54,.41,.89,.66,1.06,.74,.25,.13,.51,.17,.77,.12,.26-.05,.49-.2,.69-.47,.17-.22,.26-.45,.27-.69,.01-.24-.06-.47-.21-.7-.15-.22-.56-.6-1.24-1.12l-1.2-.92Zm2.25-2.94l-1.31,1.71,.98,.75c.58,.45,.95,.71,1.1,.8,.28,.17,.55,.23,.8,.2,.26-.03,.48-.17,.66-.41,.18-.23,.26-.46,.24-.7-.02-.24-.14-.47-.36-.69-.13-.13-.55-.46-1.26-1l-.86-.66Z"/>
    <path class="cls-1" d="M161.76,29.46l1.26,1.22-4.31,4.45,7.02-1.83,1.35,1.3-6.47,6.69-1.26-1.22,4.22-4.37-6.93,1.75-1.35-1.31,6.47-6.69Z"/>
    <path class="cls-1" d="M163.57,44.71l5.95-4.94-1.76-2.12,1.21-1.01,4.73,5.69-1.21,1.01-1.76-2.12-5.95,4.94-1.2-1.45Z"/>
    <path class="cls-1" d="M167.58,49.71l7.75-5.16,3.82,5.74-1.31,.87-2.78-4.18-1.72,1.14,2.59,3.89-1.3,.87-2.59-3.89-2.11,1.4,2.88,4.33-1.31,.87-3.92-5.89Z"/>
    <path class="cls-1" d="M181.15,53.76l2.98,5.8-8.28,4.25-.86-1.67,6.88-3.54-1.28-2.49-3.53,1.82c-1.01,.52-1.74,.85-2.17,.99-.44,.14-.83,.13-1.19-.01s-.68-.5-.97-1.05c-.1-.2-.26-.56-.49-1.1l1.29-.66,.18,.38c.18,.35,.35,.56,.5,.63,.16,.07,.42,.01,.79-.18l1.42-.74,4.73-2.43Z"/>
    <path class="cls-1" d="M185.57,62.81l.66,1.76-3.48,1.31,.88,2.35c.42,1.11,.46,2.01,.12,2.7s-.86,1.17-1.59,1.45c-.59,.22-1.16,.26-1.68,.12-.53-.15-.94-.38-1.23-.71-.29-.33-.58-.86-.85-1.59l-1.54-4.11,8.71-3.27Zm-6.59,4.48l.64,1.71c.21,.56,.38,.93,.51,1.12,.13,.19,.33,.34,.58,.44,.25,.1,.52,.09,.8-.01,.4-.15,.64-.4,.72-.76,.08-.36-.01-.88-.27-1.57l-.67-1.79-2.31,.87Z"/>
    <path class="cls-1" d="M180.19,75.35l9.04-2.23,.45,1.82-3.56,.88,.88,3.57,3.56-.88,.45,1.82-9.03,2.23-.45-1.82,3.95-.98-.88-3.57-3.95,.98-.45-1.83Z"/>
    <path class="cls-1" d="M191.76,83.99l.2,1.87-3.7,.39,.27,2.5c.07,.66,.04,1.23-.09,1.72-.13,.49-.41,.92-.83,1.29-.43,.37-.94,.58-1.54,.64-.63,.07-1.18-.04-1.67-.32-.49-.28-.83-.61-1.02-1-.19-.38-.33-.97-.41-1.74l-.47-4.37,9.25-.99Zm.94,8.8l.2,1.87-9.25,.99-.2-1.87,9.25-.99Zm-8.44-6.11l.19,1.83c.06,.58,.13,.98,.21,1.21,.08,.22,.23,.41,.45,.57s.48,.22,.77,.19c.41-.04,.71-.22,.88-.54,.17-.31,.22-.85,.14-1.61l-.2-1.9-2.45,.26Z"/>
    <path class="cls-1" d="M192.93,98.38l-.05,1.76-6.19-.18,6.08,3.95-.06,1.87-9.3-.28,.05-1.76,6.07,.18-5.96-3.94,.06-1.88,9.3,.28Zm2.17,4.89l-.03,.87c-.57-.07-1.02-.28-1.34-.65-.32-.36-.47-.83-.45-1.39,.02-.56,.19-1.02,.53-1.36,.34-.34,.8-.53,1.37-.57l-.03,.87c-.3,.02-.53,.12-.69,.3s-.24,.44-.26,.79c0,.35,.06,.61,.21,.8,.15,.19,.37,.3,.67,.34Z"/>
    <path class="cls-1" d="M191.64,114.62l-1.27,6.39-9.13-1.81,.36-1.84,7.58,1.5,.54-2.75-3.9-.77c-1.12-.22-1.89-.41-2.32-.58-.43-.16-.74-.41-.93-.75s-.22-.81-.1-1.43c.04-.22,.14-.6,.3-1.17l1.43,.28-.09,.41c-.08,.38-.08,.65,0,.81,.08,.15,.32,.27,.73,.35l1.57,.3,5.21,1.03Z"/>
    <path class="cls-1" d="M178.07,129.57l.63-1.95,2.26-.12,1.14-3.54-1.78-1.38,.61-1.9,7.74,6.31-.61,1.89-10,.69Zm4.57-2.16l3.68-.16-2.9-2.26-.78,2.42Z"/>
    <path class="cls-1" d="M185.88,134.86l-2.56,5.76-1.43-.63,1.8-4.04-7.07-3.15,.76-1.72,8.5,3.79Z"/>
    <path class="cls-1" d="M174.11,138.18l8.07,4.63-3.43,5.98-1.37-.78,2.5-4.36-1.79-1.03-2.32,4.05-1.36-.78,2.33-4.05-2.2-1.26-2.59,4.51-1.36-.78,3.52-6.14Z"/>
    <path class="cls-1" d="M169.43,146.08l7.52,5.48-1.77,2.44c-.67,.92-1.15,1.5-1.43,1.72-.43,.35-.93,.53-1.52,.55-.59,.02-1.18-.19-1.78-.63-.46-.34-.79-.7-.98-1.1-.19-.4-.28-.79-.28-1.18,0-.39,.08-.74,.22-1.05,.19-.41,.54-.97,1.04-1.65l.72-.99-2.84-2.07,1.11-1.52Zm5.14,6.07l-2.13-1.55-.61,.83c-.44,.6-.69,1.03-.76,1.29-.07,.26-.06,.51,.02,.74,.08,.24,.24,.44,.46,.6,.27,.2,.56,.28,.85,.25s.55-.15,.78-.37c.17-.16,.45-.51,.85-1.06l.53-.73Z"/>
    <path class="cls-1" d="M170.76,159.76l-1.27,1.39-2.75-2.51-1.7,1.86c-.8,.87-1.58,1.32-2.35,1.34s-1.44-.23-2.01-.76c-.47-.43-.76-.91-.87-1.45s-.09-1.01,.07-1.42c.16-.41,.51-.9,1.03-1.48l2.96-3.24,6.87,6.28Zm-6.98-3.84l-1.23,1.35c-.4,.44-.66,.76-.77,.97-.11,.21-.15,.45-.13,.72,.03,.27,.15,.5,.37,.7,.32,.29,.65,.39,1,.29s.78-.41,1.28-.96l1.29-1.41-1.82-1.66Z"/>
  </g>
  <g>
    <path class="cls-1" d="M53.87,173.33l-3.24,1.75-.15,3.74-1.33-.82-.18-3.95,3.57-1.54,1.33,.82Zm2.36,1.46l-3.23,1.75-.16,3.74-1.33-.82-.18-3.95,3.57-1.54,1.33,.82Z"/>
    <path class="cls-1" d="M60.1,176.16l-1.63-1.31c1.12-1.33,2.61-1.55,4.46-.67,1.1,.52,1.81,1.16,2.13,1.91,.33,.75,.34,1.45,.02,2.1-.21,.45-.53,.79-.96,1.02-.43,.24-.96,.37-1.6,.4,.52,.51,.84,1.03,.96,1.57,.12,.54,.05,1.09-.22,1.66-.39,.82-1.01,1.34-1.85,1.56-.84,.22-1.86,.04-3.06-.54-.98-.47-1.67-1-2.08-1.59-.41-.6-.54-1.41-.4-2.44l2,.26c-.09,.65-.03,1.12,.19,1.43,.22,.31,.54,.56,.97,.77,.59,.29,1.09,.37,1.48,.24,.39-.12,.67-.36,.83-.69,.18-.38,.18-.76-.02-1.15-.2-.38-.6-.72-1.22-1.02l-.43-.21,.67-1.41,.22,.1c.58,.28,1.08,.36,1.51,.25s.75-.38,.95-.81c.16-.34,.18-.69,.04-1.04-.14-.35-.44-.64-.9-.86-.79-.38-1.48-.23-2.08,.45Z"/>
    <path class="cls-1" d="M74.04,189.76l-2.15-.73-.1-2.52-3.92-1.33-1.57,1.95-2.1-.71,7.15-8.5,2.09,.71,.59,11.14Zm-2.33-5.12l-.11-4.1-2.56,3.19,2.67,.91Z"/>
    <path class="cls-1" d="M78.68,180.38l2.06,.36-1.49,8.49,2.95,.52,1.49-8.49,2.05,.36-1.49,8.49,3.05,.54,1.49-8.49,2.05,.36-1.49,8.49,.92,.16-.69,3.94-1.71-.3,.39-2.22-11.37-2,1.79-10.2Z"/>
    <path class="cls-1" d="M93.45,182.62l1.96,.04-.14,6.89,4.33-6.81,2.08,.04-.2,10.35-1.96-.04,.13-6.76-4.32,6.68-2.09-.04,.2-10.35Z"/>
    <path class="cls-1" d="M107.49,192.71l-.86-8.56-3.06,.31-.17-1.74,8.19-.82,.18,1.74-3.05,.31,.86,8.56-2.08,.21Z"/>
    <path class="cls-1" d="M115.55,191.73l-2.26-10.11,2.04-.45,.89,3.98,4-.89-.89-3.98,2.04-.46,2.26,10.11-2.04,.46-.99-4.42-4,.89,.99,4.42-2.04,.46Z"/>
    <path class="cls-1" d="M123.76,179.12l1.84-.67,2.35,6.48,1.6-7.91,1.96-.71,3.53,9.74-1.84,.67-2.3-6.36-1.64,7.78-1.96,.71-3.53-9.74Z"/>
    <path class="cls-1" d="M133.8,175.27l1.87-.94,1.98,3.94c.4-.25,.62-.5,.68-.75,.06-.25,.05-.84-.04-1.78-.12-1.2-.04-2.01,.23-2.46,.26-.44,.83-.88,1.69-1.31,.04-.02,.13-.07,.27-.14l.7,1.38-.27,.13c-.38,.19-.64,.38-.77,.56-.13,.18-.2,.4-.21,.65-.01,.25,.03,.73,.11,1.44,.05,.38,.06,.71,.03,.99-.02,.28-.16,.6-.4,.96,.48-.09,.94-.03,1.39,.19,.45,.22,1,.58,1.66,1.07l2.54,1.9-2.2,1.1-2.31-1.84s-.1-.07-.21-.14c-.04-.02-.19-.13-.45-.32-.47-.33-.81-.52-1.02-.55-.21-.04-.47,.02-.79,.18l2.04,4.05-1.87,.94-4.65-9.25Z"/>
    <path class="cls-1" d="M147.03,179.46l-.18-3.68-3.31-1.75,1.31-.84,3.64,1.53-.15,3.89-1.31,.84Zm2.33-1.5l-.18-3.68-3.31-1.75,1.31-.84,3.64,1.53-.15,3.89-1.31,.84Z"/>
  </g>
  <polygon class="cls-3" points="91.83 119.06 91.29 119.65 91.28 119.67 91.19 118.39 91.21 118.41 91.83 119.06"/>
  <polygon class="cls-3" points="106.78 118.75 106.74 119.35 106.48 119.06 106.78 118.75"/>
  <g>
    <polygon class="cls-1" points="166.32 109.16 155.42 109.16 150.78 94.99 147.65 95.09 153.24 112.16 164.14 112.16 166.84 120.44 159.79 125.56 152.45 120.23 127.69 138.08 129.72 140.31 152.45 123.94 159.79 129.27 170.37 121.59 166.32 109.16"/>
    <polygon class="cls-1" points="114.85 147.34 103.51 155.51 106.2 163.79 99.15 168.91 92.11 163.79 94.8 155.51 83.46 147.34 81.37 149.53 91.27 156.66 88.58 164.94 99.15 172.62 109.73 164.94 107.04 156.66 116.94 149.53 114.85 147.34"/>
    <polygon class="cls-1" points="70.63 138.08 45.86 120.23 38.51 125.57 31.47 120.45 34.16 112.17 45.05 112.17 45.39 111.13 46.82 106.78 50.65 95.09 47.52 94.98 42.87 109.17 31.98 109.17 27.95 121.6 38.51 129.28 45.87 123.94 68.59 140.31 70.63 138.08"/>
    <path class="cls-1" d="M153.31,64.99c1.49,1.4,3.84,1.31,5.24-.18,1.39-1.5,1.31-3.85-.19-5.24l-4.06-3.79c-1.5-1.4-3.85-1.32-5.24,.18-1.4,1.5-1.32,3.84,.18,5.24l4.07,3.79Z"/>
    <path class="cls-1" d="M142.88,80.51l-14.92-13.91-.02-.52c-.06-1.54-1.35-2.75-2.89-2.69-1.55,.05-2.76,1.35-2.7,2.9h0c.06,1.54,1.35,2.75,2.89,2.7l.52-.02,5.22,4.87,.37,10.63,10.63-.38,2.98,2.78,2.25,2.1,.02,.51c.05,1.55,1.35,2.76,2.89,2.7,1.54-.06,2.75-1.35,2.69-2.89h0c-.05-1.55-1.35-2.76-2.9-2.7l-.51,.02-1.98-1.84h0s-4.55-4.25-4.55-4.25Z"/>
    <path class="cls-1" d="M137.78,155.58c-1.91-3.58-4.27-6.91-7.01-9.91l-3.36-3.68-2.04-2.24-18.63-20.4,.04-.6h0s30-31.51,30-31.51l-6.54-.14-22.91,23.99,.13-1.9h0s21.34-23.44,21.34-23.44l-.6-6.51-20.19,22.11h0s.33-4.57,.33-4.57l.76-10.78h5.7v-11.06h-4.03l6.62-14.49h-3.08c.76-1.52,2.11-4.21,1.59-7.6h13.37l3.35-10.32h8.71l2.69,8.27-8.78,6.39,3.2,9.78,2.34-2.51-2.01-6.13,8.77-6.38-4.03-12.42h-13.07l-3.35,10.32h-12.15c-1.12-2.25-2.83-3.69-3.9-4.41l-.79-.54c-.06-.26-.11-.52-.18-.77-.92-3.39-2.99-5.42-5-7.39-2.14-2.09-3.91-3.18-5.21-3.97-1.34-.81-1.82-1.14-2.25-1.91-.55-1.02-.7-2.36-.43-4.01,.22-1.39,.48-2.78,.64-4.17l.5-4.14-4.01,2.93c-1.75,1.27-3.29,2.84-4.39,4.7-.9,1.52-1.64,3.35-1.94,5.49-.3,2.25-.03,4.21,.4,5.8l-.46,.68-.38,.56c-1.29,1.95-4.52,7.14-5.21,11.15h-11.13l-3.35-10.32h-13.07l-4.04,12.42,8.79,6.38-2.01,6.14,2.33,2.5,3.21-9.79-8.79-6.38,2.69-8.27h8.71l3.35,10.32h13.4c.57,2.45,2.23,5.24,3.93,7.6h-5.59l6.62,14.49h-4.2v11.06h5.71l.74,10.43,.32,4.57-19.86-21.76-.6,6.51,21.02,23.08,.14,1.93-22.6-23.66-6.54,.14,29.68,31.17,.08,1.24h0s-18.35,20.1-18.35,20.1l-2.03,2.23-3.37,3.69c-2.74,3-5.1,6.33-7.01,9.91l-5.21,9.74c-.23,.43,.26,.88,.67,.62l9.35-5.87c3.44-2.16,6.6-4.74,9.4-7.68l4.32-4.53,2.08-2.19,11.17-11.73,.27,3.83,.19,2.73-1.84,1.83c-.78,.78-1.34,1.78-1.48,2.87-.19,1.5,.31,2.93,1.35,3.98l7.25,7.24c.59,.59,1.55,.59,2.14,0l7.25-7.24c1.04-1.05,1.53-2.48,1.35-3.98-.14-1.09-.71-2.09-1.49-2.87l-2.04-2.04,.2-2.81,.27-3.82,11.44,12.01,2.08,2.19,4.32,4.53c2.8,2.94,5.96,5.52,9.4,7.68l9.35,5.87c.41,.26,.9-.19,.67-.62l-5.21-9.74Zm-60.69-12.83l-2.09,2.19-1.97,2.06,1.92-2.1,2.03-2.24,14.79-16.24,.06,.9-14.75,15.44Zm30.23-31.61v-.04s0,0,0,0v.05Zm15.99,33.8l-2.09-2.19-15.02-15.73,.06-.91,15.07,16.55,2.04,2.24,1.91,2.1-1.97-2.06Z"/>
    <polygon class="cls-1" points="56.52 67.54 51.22 61.86 45.92 66.81 45.52 67.19 53.74 76 55.19 77.55 60.89 72.24 58.85 70.05 56.52 67.54"/>
    <path class="cls-1" d="M45.01,64.99l4.06-3.79c1.5-1.4,1.58-3.74,.19-5.24-1.4-1.5-3.75-1.58-5.24-.18l-4.07,3.79c-1.5,1.39-1.58,3.74-.18,5.24,1.39,1.49,3.74,1.58,5.24,.18Z"/>
    <path class="cls-1" d="M48.91,86.6l-.51-.02c-1.54-.06-2.84,1.15-2.9,2.69h0c-.06,1.54,1.15,2.84,2.69,2.89h0c1.54,.06,2.84-1.15,2.89-2.69l.02-.52,2.23-2.08h0s2.99-2.8,2.99-2.8l10.63,.38,.37-10.63,5.23-4.87,.52,.02c1.54,.05,2.83-1.16,2.89-2.7h0c.05-1.55-1.16-2.84-2.7-2.89-1.54-.05-2.84,1.16-2.89,2.7l-.02,.51-14.94,13.93-4.55,4.24-1.96,1.83Z"/>
  </g>
  <polygon class="cls-1" points="137.41 72.24 143.11 77.55 144.56 76 152.78 67.19 152.38 66.81 147.08 61.86 141.78 67.54 139.45 70.05 137.41 72.24"/>
  <g>
    <path class="cls-2" d="M86.04,83.17h5.51l4.06,57.28c.05,.73-.22,1.44-.73,1.96l-1.65,1.65c-.97,.97-.97,2.55,0,3.52l5.9,5.9,5.9-5.9c.97-.97,.97-2.55,0-3.52l-1.87-1.87c-.52-.52-.78-1.23-.73-1.96l4.04-57.07h5.51v-5.39h-25.93v5.39Z"/>
    <path class="cls-2" d="M96.02,46.02c1,2.11,1.82,5.37,.79,10.31,1.06-1.48,2.86-4.46,3.19-8.54,.13-1.68-.01-3.16-.24-4.33,.89,.54,2.81,1.88,3.77,4.33,1.32,3.37,.31,7.45-2.57,10.44,.97-.49,4.02-2.2,5.66-5.93,.38-.86,1.67-3.9,.71-7.43-.7-2.59-2.27-4.16-4.25-6.1-4.05-3.96-6.43-3.75-7.96-6.55-.79-1.45-1.41-3.79-.35-7.61-1.12,1.06-3.45,3.61-3.98,7.43-.42,3.08,.53,5.55,1.15,7.17,1.35,3.51,2.81,4.16,4.07,6.81Z"/>
    <path class="cls-2" d="M111.76,59.2c.74-1.46,1.9-3.75,1.22-6.55-.69-2.83-2.83-4.4-3.52-4.87,.91,2.86,.58,4.78,.09,6.02-1.02,2.58-3.1,3.2-5.57,6.58-.76,1.04-1.32,2.03-1.76,2.9h-2.64s-9.03-8.02-9.76-12.84c-.71-4.69,.44-10.7,.44-10.7,0,0-5.04,7.34-5.23,11.32-.19,3.98,7.24,12.22,7.24,12.22h-7.09l5.33,11.65h17.14l5.33-11.65h-4.5c1.14-.95,2.36-2.27,3.28-4.09Z"/>
  </g>
</svg>